<svg width="99" height="37" viewBox="0 0 99 37" fill="none" xmlns="http://www.w3.org/2000/svg">
<rect x="75.3076" y="13.1818" width="19.3846" height="13.5069" fill="#FF7043"/>
<rect x="75.3076" y="24.0745" width="19.3846" height="5.22849" rx="2.61425" fill="#FF7043"/>
<rect x="71" y="14.4889" width="6.03076" height="3.04995" rx="1.52498" fill="#FF7043"/>
<rect x="92.9692" y="14.4889" width="6.03076" height="3.04995" rx="1.52498" fill="#FF7043"/>
<rect x="77.4614" y="14.489" width="1.72307" height="12.6355" rx="0.861537" fill="white"/>
<circle cx="87.3332" cy="10.4242" r="1.90909" fill="#FF7043"/>
<circle cx="82.2425" cy="8.30296" r="1.48485" fill="#FF7043"/>
<circle cx="85.2121" cy="4.0606" r="1.0606" fill="#FF7043"/>
<path d="M22.65 13.1C24.63 13.1 26.18 13.67 27.3 14.81C28.44 15.95 29.01 17.63 29.01 19.85V29H26.88V20.06C26.88 18.42 26.48 17.17 25.68 16.31C24.9 15.45 23.79 15.02 22.35 15.02C20.71 15.02 19.42 15.53 18.48 16.55C17.54 17.55 17.07 18.94 17.07 20.72V29H14.94V20.06C14.94 18.42 14.54 17.17 13.74 16.31C12.96 15.45 11.84 15.02 10.38 15.02C8.76 15.02 7.47 15.53 6.51 16.55C5.57 17.55 5.1 18.94 5.1 20.72V29H2.97V13.22H5.01V16.1C5.57 15.14 6.35 14.4 7.35 13.88C8.35 13.36 9.5 13.1 10.8 13.1C12.12 13.1 13.26 13.38 14.22 13.94C15.2 14.5 15.93 15.33 16.41 16.43C16.99 15.39 17.82 14.58 18.9 14C20 13.4 21.25 13.1 22.65 13.1ZM48.585 21.77H35.385C35.505 23.41 36.135 24.74 37.275 25.76C38.415 26.76 39.855 27.26 41.595 27.26C42.575 27.26 43.475 27.09 44.295 26.75C45.115 26.39 45.825 25.87 46.425 25.19L47.625 26.57C46.925 27.41 46.045 28.05 44.985 28.49C43.945 28.93 42.795 29.15 41.535 29.15C39.915 29.15 38.475 28.81 37.215 28.13C35.975 27.43 35.005 26.47 34.305 25.25C33.605 24.03 33.255 22.65 33.255 21.11C33.255 19.57 33.585 18.19 34.245 16.97C34.925 15.75 35.845 14.8 37.005 14.12C38.185 13.44 39.505 13.1 40.965 13.1C42.425 13.1 43.735 13.44 44.895 14.12C46.055 14.8 46.965 15.75 47.625 16.97C48.285 18.17 48.615 19.55 48.615 21.11L48.585 21.77ZM40.965 14.93C39.445 14.93 38.165 15.42 37.125 16.4C36.105 17.36 35.525 18.62 35.385 20.18H46.575C46.435 18.62 45.845 17.36 44.805 16.4C43.785 15.42 42.505 14.93 40.965 14.93ZM60.9905 13.1C62.9705 13.1 64.5405 13.68 65.7005 14.84C66.8805 15.98 67.4705 17.65 67.4705 19.85V29H65.3405V20.06C65.3405 18.42 64.9305 17.17 64.1105 16.31C63.2905 15.45 62.1205 15.02 60.6005 15.02C58.9005 15.02 57.5505 15.53 56.5505 16.55C55.5705 17.55 55.0805 18.94 55.0805 20.72V29H52.9505V13.22H54.9905V16.13C55.5705 15.17 56.3705 14.43 57.3905 13.91C58.4305 13.37 59.6305 13.1 60.9905 13.1Z" fill="#FF7043"/>
</svg>
