<?xml version="1.0" standalone="no"?>
<!DOCTYPE svg PUBLIC "-//W3C//DTD SVG 20010904//EN"
 "http://www.w3.org/TR/2001/REC-SVG-20010904/DTD/svg10.dtd">
<svg version="1.0" xmlns="http://www.w3.org/2000/svg"
 width="1056.000000pt" height="1056.000000pt" viewBox="0 0 1056.000000 1056.000000"
 preserveAspectRatio="xMidYMid meet">
<metadata>
Created by potrace 1.14, written by Peter Selinger 2001-2017
</metadata>
<g transform="translate(0.000000,1056.000000) scale(0.100000,-0.100000)"
fill="#000000" stroke="none">
<path d="M5235 10218 c-110 -37 -199 -120 -245 -228 -35 -82 -36 -207 -2 -291
29 -73 30 -74 97 -143 51 -52 116 -91 170 -100 17 -3 41 -8 55 -12 24 -5 79
-8 90 -4 3 1 16 3 30 6 48 8 115 37 160 70 45 32 114 104 102 104 -4 0 2 7 12
15 11 8 17 15 13 15 -3 0 3 21 13 46 11 25 22 65 24 90 3 24 7 48 11 54 3 5 3
10 -2 10 -4 0 -9 18 -10 40 -2 48 -31 140 -44 140 -5 0 -9 7 -9 15 0 9 -29 44
-64 78 -80 78 -153 110 -264 113 -56 2 -93 -3 -137 -18z"/>
<path d="M4217 8803 c-4 -3 -23 -7 -44 -9 -66 -7 -165 -37 -193 -58 -8 -7 -28
-18 -43 -26 -25 -12 -147 -124 -147 -134 0 -3 -13 -26 -30 -53 -84 -135 -102
-344 -43 -480 9 -21 17 -40 17 -43 3 -18 71 -113 109 -150 56 -55 64 -61 113
-92 51 -33 254 -96 254 -79 0 3 26 6 58 7 109 1 203 32 297 98 48 34 130 122
151 163 10 21 22 41 27 44 4 3 9 15 12 27 2 11 8 29 14 40 13 24 35 150 32
187 -4 70 -12 119 -22 137 -7 13 -12 25 -11 28 4 13 -22 80 -31 80 -6 0 -8 3
-5 6 15 14 -90 142 -150 185 -26 18 -49 36 -52 40 -6 8 -102 49 -126 54 -11 2
-19 4 -19 6 0 3 -47 10 -96 13 -26 2 -51 6 -56 9 -6 4 -13 4 -16 0z"/>
<path d="M6138 8164 c-3 -3 -28 -7 -54 -10 -50 -4 -55 -5 -114 -18 -47 -11
-220 -94 -220 -106 0 -6 -6 -10 -12 -10 -17 0 -112 -93 -159 -155 -68 -91
-124 -236 -133 -348 -2 -25 -7 -51 -11 -56 -3 -6 -3 -11 2 -11 4 0 8 -11 8
-25 0 -14 -4 -25 -8 -25 -5 0 -5 -5 -1 -12 8 -12 14 -42 17 -90 1 -15 6 -30
10 -34 4 -4 7 -14 7 -23 0 -18 41 -123 56 -143 5 -7 16 -25 24 -40 7 -16 17
-28 22 -28 4 0 8 -7 8 -15 0 -9 7 -18 15 -21 8 -4 15 -10 15 -15 0 -7 52 -59
93 -94 81 -69 215 -135 274 -137 5 0 16 -4 26 -9 10 -6 45 -11 78 -13 33 -2
63 -6 66 -9 3 -4 10 -4 15 -1 6 4 35 8 66 9 32 2 77 8 102 15 56 15 173 60
180 70 3 4 16 13 30 21 131 73 250 225 307 394 24 71 27 95 27 215 0 126 -3
141 -33 230 -18 52 -35 97 -39 100 -4 3 -16 22 -27 43 -11 20 -23 37 -27 37
-5 0 -8 6 -8 13 0 15 -81 101 -135 143 -102 80 -257 141 -374 148 -39 2 -74 7
-79 10 -5 3 -12 3 -14 0z"/>
<path d="M1633 6398 c-5 -8 -9 -109 -8 -250 0 -232 0 -238 -20 -239 -11 0
-270 -2 -575 -3 -500 -2 -560 -4 -610 -20 -128 -42 -236 -116 -306 -211 -16
-22 -33 -43 -39 -47 -5 -4 -7 -8 -3 -8 4 0 -1 -16 -12 -35 -11 -20 -20 -42
-20 -50 0 -8 -5 -15 -12 -15 -6 0 -9 -3 -6 -6 3 -3 0 -28 -8 -56 -16 -64 -11
-225 9 -288 18 -55 46 -115 72 -155 24 -37 145 -162 145 -149 0 5 4 4 8 -2 15
-23 124 -75 187 -89 60 -14 166 -17 640 -19 l550 -1 2 -1770 c1 -974 3 -1788
6 -1810 7 -59 37 -175 54 -207 7 -16 11 -28 7 -28 -3 0 1 -11 10 -25 9 -14 14
-25 11 -25 -4 0 3 -13 14 -29 12 -16 21 -33 21 -38 0 -4 21 -37 45 -73 55 -79
149 -176 230 -237 63 -48 247 -143 278 -143 9 0 25 -4 35 -10 9 -5 53 -16 97
-25 70 -12 446 -14 2875 -12 l2795 2 85 24 c46 13 103 32 127 42 24 10 44 18
46 17 3 -2 94 51 148 87 100 68 208 181 276 290 48 76 105 212 119 280 2 11 6
31 9 45 18 80 20 315 20 1898 0 1543 2 1743 15 1746 8 2 260 3 558 3 299 -1
546 1 548 5 2 3 12 5 22 3 9 -1 23 2 29 8 7 5 13 7 13 4 0 -21 180 66 227 109
18 17 33 29 33 27 0 -14 94 113 114 154 48 98 61 152 60 263 -1 117 -5 138
-38 220 -70 173 -233 308 -416 347 -14 3 -266 7 -560 8 -294 2 -551 4 -570 4
l-35 1 0 242 c0 179 -3 243 -12 243 -6 0 -14 3 -18 7 -4 4 -18 3 -32 -3 -16
-6 -22 -6 -18 1 4 7 -3 7 -19 0 -17 -6 -26 -6 -26 1 0 6 -7 6 -20 -1 -13 -7
-20 -7 -20 -1 0 7 -9 7 -25 1 -16 -6 -25 -6 -25 0 0 6 -9 6 -25 0 -14 -5 -25
-6 -25 -2 0 4 -11 7 -25 7 -14 0 -25 -4 -25 -8 0 -5 -5 -5 -11 -2 -15 10 -128
12 -122 3 2 -5 -7 -4 -21 2 -16 6 -26 6 -26 0 0 -6 -9 -6 -25 0 -15 6 -26 6
-30 -1 -4 -5 -13 -6 -22 -1 -8 5 -33 6 -54 2 -21 -4 -39 -5 -39 -1 0 3 -11 6
-25 6 -14 0 -25 -4 -25 -8 0 -4 -9 -3 -20 3 -11 6 -20 7 -20 3 0 -4 -11 -8
-25 -8 -14 0 -25 3 -25 7 0 4 -11 3 -25 -2 -16 -6 -25 -6 -25 0 0 6 -9 6 -25
0 -14 -5 -25 -6 -25 -2 0 4 -11 7 -25 7 -14 0 -25 -4 -25 -8 0 -5 -5 -5 -11
-2 -15 10 -128 12 -122 3 2 -5 -7 -4 -21 2 -16 6 -26 6 -26 0 0 -6 -9 -6 -25
0 -15 6 -26 6 -30 0 -4 -6 -13 -7 -23 -2 -9 5 -28 6 -42 2 -14 -4 -33 -3 -42
2 -10 5 -19 4 -23 -2 -4 -6 -15 -6 -30 0 -16 6 -25 6 -25 0 0 -6 -9 -6 -22 -1
-13 5 -33 5 -45 0 -14 -5 -23 -5 -23 2 0 6 -7 6 -20 -1 -11 -6 -20 -7 -20 -3
0 4 -11 8 -25 8 -14 0 -25 -2 -25 -5 0 -3 -11 -5 -25 -5 -14 0 -25 3 -25 7 0
4 -11 3 -25 -2 -16 -6 -25 -6 -25 0 0 6 -9 6 -25 0 -16 -6 -25 -6 -25 1 0 6
-7 6 -20 -1 -13 -7 -20 -7 -20 -1 0 7 -9 7 -26 1 -15 -6 -23 -6 -19 -1 3 6 -6
6 -25 1 -16 -5 -30 -5 -30 -2 0 9 -64 7 -79 -3 -6 -3 -11 -1 -11 5 0 8 -6 8
-20 0 -14 -8 -20 -8 -20 0 0 8 -6 8 -20 0 -14 -8 -20 -8 -20 0 0 8 -6 8 -20 0
-14 -8 -20 -8 -20 0 0 8 -6 8 -20 0 -14 -8 -20 -8 -20 0 0 8 -6 8 -20 0 -14
-8 -20 -8 -20 0 0 8 -6 8 -20 0 -14 -8 -20 -8 -20 0 0 6 -5 8 -11 5 -15 -10
-79 -12 -79 -3 0 3 -13 3 -30 -2 -19 -5 -30 -5 -30 1 0 6 -7 6 -19 -1 -14 -7
-22 -7 -26 0 -5 7 -11 8 -19 1 -7 -6 -17 -6 -26 -1 -9 5 -19 5 -26 -1 -8 -7
-14 -6 -19 1 -4 7 -12 7 -26 0 -12 -7 -19 -7 -19 -1 0 6 -11 6 -30 1 -19 -5
-30 -5 -30 1 0 6 -8 5 -20 -1 -14 -8 -20 -8 -20 0 0 7 -6 8 -19 0 -13 -7 -22
-7 -26 0 -4 7 -12 7 -25 0 -13 -7 -21 -7 -25 0 -4 7 -13 7 -26 0 -12 -7 -19
-7 -19 -1 0 6 -11 6 -30 1 -17 -5 -30 -5 -30 -2 0 9 -64 7 -79 -3 -6 -3 -11
-1 -11 5 0 8 -6 8 -20 0 -14 -8 -20 -8 -20 0 0 8 -6 8 -20 0 -14 -8 -20 -8
-20 0 0 8 -6 8 -20 0 -14 -8 -20 -8 -20 0 0 8 -6 8 -20 0 -14 -8 -20 -8 -20 0
0 8 -6 8 -20 0 -14 -8 -20 -8 -20 0 0 8 -6 8 -20 0 -14 -8 -20 -8 -20 0 0 7
-6 8 -17 2 -20 -9 -54 -8 -71 2 -6 3 -13 2 -17 -3 -4 -7 -15 -7 -30 -1 -16 6
-25 6 -25 0 0 -6 -9 -6 -22 -1 -13 5 -33 5 -45 0 -14 -5 -23 -5 -23 2 0 6 -7
6 -20 -1 -11 -6 -20 -7 -20 -3 0 4 -11 8 -25 8 -14 0 -25 -2 -25 -5 0 -3 -11
-5 -25 -5 -14 0 -25 3 -25 7 0 4 -11 3 -25 -2 -16 -6 -25 -6 -25 0 0 6 -9 6
-25 0 -16 -6 -25 -6 -25 1 0 6 -7 6 -20 -1 -13 -7 -20 -7 -20 -1 0 7 -9 7 -26
1 -15 -6 -23 -6 -19 -1 3 6 -6 6 -25 1 -16 -5 -30 -5 -30 -2 0 9 -64 7 -79 -3
-6 -3 -11 -1 -11 5 0 8 -6 8 -20 0 -14 -8 -20 -8 -20 0 0 8 -6 8 -20 0 -14 -8
-20 -8 -20 0 0 8 -6 8 -20 0 -14 -8 -20 -8 -20 0 0 8 -6 8 -20 0 -14 -8 -20
-8 -20 0 0 8 -6 8 -20 0 -14 -8 -20 -8 -20 0 0 8 -6 8 -20 0 -14 -8 -20 -8
-20 0 0 6 -5 8 -11 5 -15 -10 -79 -12 -79 -3 0 3 -14 3 -30 -2 -19 -5 -30 -5
-30 1 0 6 -7 6 -19 -1 -14 -7 -22 -7 -26 0 -5 7 -11 8 -19 1 -7 -6 -17 -6 -26
-1 -9 5 -19 5 -26 -1 -8 -7 -14 -6 -19 1 -4 7 -12 7 -26 0 -12 -7 -19 -7 -19
-1 0 6 -11 6 -30 1 -19 -5 -30 -5 -30 1 0 6 -7 6 -19 -1 -14 -7 -22 -7 -26 0
-5 7 -11 8 -19 1 -7 -6 -17 -6 -26 -1 -9 5 -19 5 -26 -1 -8 -7 -14 -6 -19 1
-4 7 -12 7 -26 0 -12 -7 -19 -7 -19 -1 0 6 -11 6 -30 1 -16 -5 -30 -5 -30 -2
0 9 -64 7 -79 -3 -6 -3 -11 -1 -11 5 0 8 -6 8 -20 0 -14 -8 -20 -8 -20 0 0 8
-6 8 -20 0 -14 -8 -20 -8 -20 0 0 8 -6 8 -20 0 -14 -8 -20 -8 -20 0 0 8 -6 8
-20 0 -14 -8 -20 -8 -20 0 0 8 -6 8 -20 0 -14 -8 -20 -8 -20 0 0 8 -6 8 -20 0
-14 -8 -20 -8 -20 0 0 8 -6 8 -20 0 -14 -8 -20 -8 -20 0 0 8 -6 8 -20 0 -14
-8 -20 -8 -20 0 0 8 -6 8 -20 0 -14 -8 -20 -8 -20 0 0 8 -6 8 -20 0 -14 -8
-20 -8 -20 0 0 8 -6 8 -20 0 -14 -8 -20 -8 -20 0 0 8 -6 8 -20 0 -14 -8 -20
-8 -20 0 0 8 -6 8 -20 0 -14 -8 -20 -8 -20 0 0 8 -6 8 -20 0 -14 -8 -20 -8
-20 0 0 6 -5 8 -11 5 -15 -10 -79 -12 -79 -3 0 3 -13 3 -30 -2 -19 -5 -30 -5
-30 1 0 6 -7 6 -19 -1 -14 -7 -22 -7 -26 0 -5 7 -11 8 -19 1 -7 -6 -17 -6 -26
-1 -9 5 -19 5 -26 -1 -8 -7 -14 -6 -19 1 -4 7 -12 7 -26 0 -12 -7 -19 -7 -19
-1 0 6 -11 6 -30 1 -19 -5 -30 -5 -30 1 0 6 -7 6 -19 -1 -14 -7 -22 -7 -26 0
-5 7 -11 8 -19 1 -7 -6 -17 -6 -26 -1 -9 5 -19 5 -26 -1 -8 -7 -14 -6 -19 1
-4 7 -12 7 -26 0 -12 -7 -19 -7 -19 -1 0 6 -11 6 -30 1 -16 -5 -30 -5 -30 -2
0 9 -64 7 -79 -3 -6 -3 -11 -1 -11 5 0 8 -6 8 -20 0 -14 -8 -20 -8 -20 0 0 8
-6 8 -20 0 -14 -8 -20 -8 -20 0 0 8 -6 8 -20 0 -14 -8 -20 -8 -20 0 0 8 -6 8
-20 0 -14 -8 -20 -8 -20 0 0 8 -6 8 -20 0 -14 -8 -20 -8 -20 0 0 8 -6 8 -20 0
-14 -8 -20 -8 -20 0 0 8 -6 8 -20 0 -14 -8 -20 -8 -20 0 0 8 -6 8 -20 0 -14
-8 -20 -8 -20 0 0 8 -6 8 -20 0 -14 -8 -20 -8 -20 0 0 8 -6 8 -20 0 -14 -8
-20 -8 -20 0 0 8 -6 8 -20 0 -14 -8 -20 -8 -20 0 0 8 -6 8 -20 0 -14 -8 -20
-8 -20 0 0 8 -6 8 -20 0 -14 -8 -20 -8 -20 0 0 8 -6 8 -20 0 -14 -8 -20 -8
-20 0 0 6 -5 8 -11 5 -15 -10 -79 -12 -79 -3 0 3 -13 3 -30 -2 -19 -5 -30 -5
-30 1 0 6 -7 6 -19 -1 -14 -7 -22 -7 -26 0 -5 7 -11 8 -19 1 -7 -6 -17 -6 -26
-1 -9 5 -19 5 -26 -1 -8 -7 -14 -6 -19 1 -4 7 -12 7 -26 0 -12 -7 -19 -7 -19
-1 0 6 -11 6 -30 1 -19 -5 -30 -5 -30 1 0 6 -7 6 -19 -1 -14 -7 -22 -7 -26 0
-5 7 -11 8 -19 1 -7 -6 -17 -6 -26 -1 -9 5 -19 5 -26 -1 -8 -7 -14 -6 -19 1
-4 7 -12 7 -26 0 -12 -7 -19 -7 -19 -1 0 7 -8 7 -24 1 -14 -5 -27 -5 -33 1 -6
6 -13 5 -20 -3z"/>
</g>
</svg>
