<svg width="233" height="115" viewBox="0 0 233 115" fill="none" xmlns="http://www.w3.org/2000/svg">
<path d="M54.36 31.84C59.112 31.84 62.832 33.208 65.52 35.944C68.256 38.68 69.624 42.712 69.624 48.04V70H64.512V48.544C64.512 44.608 63.552 41.608 61.632 39.544C59.76 37.48 57.096 36.448 53.64 36.448C49.704 36.448 46.608 37.672 44.352 40.12C42.096 42.52 40.968 45.856 40.968 50.128V70H35.856V48.544C35.856 44.608 34.896 41.608 32.976 39.544C31.104 37.48 28.416 36.448 24.912 36.448C21.024 36.448 17.928 37.672 15.624 40.12C13.368 42.52 12.24 45.856 12.24 50.128V70H7.128V32.128H12.024V39.04C13.368 36.736 15.24 34.96 17.64 33.712C20.04 32.464 22.8 31.84 25.92 31.84C29.088 31.84 31.824 32.512 34.128 33.856C36.48 35.2 38.232 37.192 39.384 39.832C40.776 37.336 42.768 35.392 45.36 34C48 32.56 51 31.84 54.36 31.84ZM116.604 52.648H84.924C85.212 56.584 86.724 59.776 89.46 62.224C92.196 64.624 95.652 65.824 99.828 65.824C102.18 65.824 104.34 65.416 106.308 64.6C108.276 63.736 109.98 62.488 111.42 60.856L114.3 64.168C112.62 66.184 110.508 67.72 107.964 68.776C105.468 69.832 102.708 70.36 99.684 70.36C95.796 70.36 92.34 69.544 89.316 67.912C86.34 66.232 84.012 63.928 82.332 61C80.652 58.072 79.812 54.76 79.812 51.064C79.812 47.368 80.604 44.056 82.188 41.128C83.82 38.2 86.028 35.92 88.812 34.288C91.644 32.656 94.812 31.84 98.316 31.84C101.82 31.84 104.964 32.656 107.748 34.288C110.532 35.92 112.716 38.2 114.3 41.128C115.884 44.008 116.676 47.32 116.676 51.064L116.604 52.648ZM98.316 36.232C94.668 36.232 91.596 37.408 89.1 39.76C86.652 42.064 85.26 45.088 84.924 48.832H111.78C111.444 45.088 110.028 42.064 107.532 39.76C105.084 37.408 102.012 36.232 98.316 36.232ZM146.377 31.84C151.129 31.84 154.897 33.232 157.681 36.016C160.513 38.752 161.929 42.76 161.929 48.04V70H156.817V48.544C156.817 44.608 155.833 41.608 153.865 39.544C151.897 37.48 149.089 36.448 145.441 36.448C141.361 36.448 138.121 37.672 135.721 40.12C133.369 42.52 132.193 45.856 132.193 50.128V70H127.081V32.128H131.977V39.112C133.369 36.808 135.289 35.032 137.737 33.784C140.233 32.488 143.113 31.84 146.377 31.84Z" fill="#FF7043"/>
<circle cx="205.5" cy="25.5" r="4.5" fill="#FF7043"/>
<circle cx="193.5" cy="20.5" r="3.5" fill="#FF7043"/>
<circle cx="200.5" cy="10.5" r="2.5" fill="#FF7043"/>
<rect x="177.154" y="32" width="45.6923" height="31.8378" fill="#FF7043"/>
<rect x="177.154" y="57.6757" width="45.6923" height="12.3243" rx="6.16216" fill="#FF7043"/>
<rect x="167" y="35.0811" width="14.2154" height="7.18919" rx="3.59459" fill="#FF7043"/>
<rect x="218.785" y="35.0811" width="14.2154" height="7.18919" rx="3.59459" fill="#FF7043"/>
<rect x="182.231" y="35.0811" width="4.06154" height="29.7838" rx="2.03077" fill="white"/>
<path d="M84.18 86.92C86.556 86.92 88.416 87.604 89.76 88.972C91.128 90.34 91.812 92.356 91.812 95.02V106H89.256V95.272C89.256 93.304 88.776 91.804 87.816 90.772C86.88 89.74 85.548 89.224 83.82 89.224C81.852 89.224 80.304 89.836 79.176 91.06C78.048 92.26 77.484 93.928 77.484 96.064V106H74.928V95.272C74.928 93.304 74.448 91.804 73.488 90.772C72.552 89.74 71.208 89.224 69.456 89.224C67.512 89.224 65.964 89.836 64.812 91.06C63.684 92.26 63.12 93.928 63.12 96.064V106H60.564V87.064H63.012V90.52C63.684 89.368 64.62 88.48 65.82 87.856C67.02 87.232 68.4 86.92 69.96 86.92C71.544 86.92 72.912 87.256 74.064 87.928C75.24 88.6 76.116 89.596 76.692 90.916C77.388 89.668 78.384 88.696 79.68 88C81 87.28 82.5 86.92 84.18 86.92ZM105.368 86.92C107.84 86.92 109.736 87.544 111.056 88.792C112.376 90.016 113.036 91.84 113.036 94.264V106H110.588V103.048C110.012 104.032 109.16 104.8 108.032 105.352C106.928 105.904 105.608 106.18 104.072 106.18C101.96 106.18 100.28 105.676 99.0317 104.668C97.7837 103.66 97.1597 102.328 97.1597 100.672C97.1597 99.064 97.7357 97.768 98.8877 96.784C100.064 95.8 101.924 95.308 104.468 95.308H110.48V94.156C110.48 92.524 110.024 91.288 109.112 90.448C108.2 89.584 106.868 89.152 105.116 89.152C103.916 89.152 102.764 89.356 101.66 89.764C100.556 90.148 99.6077 90.688 98.8157 91.384L97.6637 89.476C98.6237 88.66 99.7757 88.036 101.12 87.604C102.464 87.148 103.88 86.92 105.368 86.92ZM104.468 104.164C105.908 104.164 107.144 103.84 108.176 103.192C109.208 102.52 109.976 101.56 110.48 100.312V97.216H104.54C101.3 97.216 99.6797 98.344 99.6797 100.6C99.6797 101.704 100.1 102.58 100.94 103.228C101.78 103.852 102.956 104.164 104.468 104.164ZM126.998 96.496L122.534 100.6V106H119.978V79.288H122.534V97.396L133.838 87.064H137.006L128.906 94.804L137.762 106H134.63L126.998 96.496ZM157.314 97.324H141.474C141.618 99.292 142.374 100.888 143.742 102.112C145.11 103.312 146.838 103.912 148.926 103.912C150.102 103.912 151.182 103.708 152.166 103.3C153.15 102.868 154.002 102.244 154.722 101.428L156.162 103.084C155.322 104.092 154.266 104.86 152.994 105.388C151.746 105.916 150.366 106.18 148.854 106.18C146.91 106.18 145.182 105.772 143.67 104.956C142.182 104.116 141.018 102.964 140.178 101.5C139.338 100.036 138.918 98.38 138.918 96.532C138.918 94.684 139.314 93.028 140.106 91.564C140.922 90.1 142.026 88.96 143.418 88.144C144.834 87.328 146.418 86.92 148.17 86.92C149.922 86.92 151.494 87.328 152.886 88.144C154.278 88.96 155.37 90.1 156.162 91.564C156.954 93.004 157.35 94.66 157.35 96.532L157.314 97.324ZM148.17 89.116C146.346 89.116 144.81 89.704 143.562 90.88C142.338 92.032 141.642 93.544 141.474 95.416H154.902C154.734 93.544 154.026 92.032 152.778 90.88C151.554 89.704 150.018 89.116 148.17 89.116ZM165 90.772C165.6 89.5 166.488 88.54 167.664 87.892C168.864 87.244 170.34 86.92 172.092 86.92V89.404L171.48 89.368C169.488 89.368 167.928 89.98 166.8 91.204C165.672 92.428 165.108 94.144 165.108 96.352V106H162.552V87.064H165V90.772Z" fill="#FF7043"/>
</svg>
