<svg width="319" height="319" viewBox="0 0 319 319" fill="none" xmlns="http://www.w3.org/2000/svg">
<path d="M172.893 200.705C163.836 200.548 154.772 200.113 145.359 199.538C133.629 198.815 119.375 201.715 108.176 197.222C97.3092 192.868 90.3865 185.963 83.2462 177.194C79.528 172.657 73.7895 170.35 68.2253 168.486C62.661 166.623 56.853 164.907 52.3772 161.111C47.9014 157.314 45.1759 150.723 47.7359 145.437C54.0316 132.454 74.5123 136.79 74.5558 117.198C74.5558 110.536 71.5865 103.074 75.5398 97.7097C76.8805 96.0865 78.5176 94.7331 80.3639 93.7215C89.3329 88.1921 100.897 88.732 109.796 83.2722C119.845 77.0549 117.755 65.2907 126.707 57.088C129.696 54.4829 132.927 52.1678 136.355 50.174C159.796 35.6669 184.03 37.0253 208.046 50.8445C220.89 58.2548 232.044 71.5429 237.295 85.336C243.121 100.696 231.626 117.772 241.301 131.13C243.495 134.16 246.403 136.616 248.781 139.507C258.742 151.611 243.408 159.065 237.121 167.285C232.079 173.894 232.854 183.559 228.013 190.317C222.396 198.154 211.468 199.469 201.811 200.069C191.893 200.722 182.393 200.87 172.893 200.705Z" fill="#845161"/>
<path d="M272.257 245.742C243.96 267.529 209.213 279.271 173.501 279.113C137.789 278.956 103.146 266.907 75.0435 244.871L117.415 225.008C118.712 224.395 119.977 223.715 121.203 222.971L122.179 222.361C122.527 222.144 122.866 221.917 123.206 221.682C128.552 217.994 132.933 213.075 135.98 207.34C139.463 200.766 140.613 193.504 140.665 186.102C140.665 182.036 140.5 177.969 140.395 173.911C140.395 172.994 140.378 172.08 140.343 171.168C140.308 168.411 140.279 165.65 140.256 162.887L141.997 163.758L146.525 166.1L172.901 170.585L200 175.2L200.792 202.107V203.039L201.201 216.858L211.189 220.924L219.026 224.094L272.257 245.742Z" fill="#F2A196"/>
<path d="M200.775 196.003C198.406 197.466 196.168 198.154 194.209 197.945C181.33 196.56 156.208 186.468 140.395 167.79C140.395 166.873 140.378 165.958 140.343 165.047C140.308 162.289 140.279 159.529 140.256 156.766L141.997 157.637L146.525 159.979L172.901 164.464L200 169.079L200.775 196.003Z" fill="#E88870"/>
<path d="M118.486 149.799C126.662 149.799 133.29 143.172 133.29 134.996C133.29 126.821 126.662 120.193 118.486 120.193C110.311 120.193 103.683 126.821 103.683 134.996C103.683 143.172 110.311 149.799 118.486 149.799Z" fill="#F2A196"/>
<path d="M123.711 148.058C131.887 148.058 138.514 141.43 138.514 133.255C138.514 125.079 131.887 118.452 123.711 118.452C115.536 118.452 108.908 125.079 108.908 133.255C108.908 141.43 115.536 148.058 123.711 148.058Z" fill="#E88870"/>
<path d="M219.096 112.583C229.319 148.014 207.593 190.839 194.244 190.839C175.958 190.839 131.548 176.228 121.334 140.804C111.12 105.381 124.695 70.3413 151.689 62.5478C178.683 54.7544 208.864 77.1594 219.096 112.583Z" fill="#F2A196"/>
<path d="M164.098 119.941C169.409 119.941 169.409 128.109 164.098 128.143H163.854C158.542 128.143 158.542 119.984 163.854 119.941H164.098Z" fill="#00214E"/>
<path d="M207.863 116.597C212.792 116.597 212.792 124.173 207.863 124.216H207.637C202.708 124.173 202.708 116.64 207.637 116.597H207.863Z" fill="#00214E"/>
<path d="M164.08 140.656C173.218 140.656 180.625 133.249 180.625 124.112C180.625 114.974 173.218 107.567 164.08 107.567C154.943 107.567 147.536 114.974 147.536 124.112C147.536 133.249 154.943 140.656 164.08 140.656Z" stroke="white" stroke-miterlimit="10"/>
<path d="M210.353 138.044C219.491 138.044 226.898 130.637 226.898 121.499C226.898 112.362 219.491 104.955 210.353 104.955C201.216 104.955 193.809 112.362 193.809 121.499C193.809 130.637 201.216 138.044 210.353 138.044Z" stroke="white" stroke-miterlimit="10"/>
<path d="M185.388 65.4824C181.644 81.7746 173.467 95.6026 158.516 105.669C142.398 116.832 125.366 122.213 106.801 125.923C107.271 114.507 106.017 98.45 111.903 88.2619C118.584 76.9594 128.342 67.7904 140.038 61.8252C152.926 55.1637 172.875 48.6329 187.365 53.2567C186.966 57.3697 186.305 61.4532 185.388 65.4824Z" fill="#845161"/>
<path d="M186.912 114.237C186.842 114.533 193.809 142.398 193.809 142.398H182.924" stroke="#00214E" stroke-miterlimit="10"/>
<path d="M196.891 105.364C203.048 102.206 210.181 101.527 216.823 103.466" stroke="#00214E" stroke-miterlimit="10"/>
<path d="M148.903 108.56C153.091 106.424 157.699 105.238 162.398 105.088C167.097 104.937 171.772 105.825 176.088 107.689" stroke="#00214E" stroke-miterlimit="10"/>
<path d="M180.625 124.112L193.809 122.988" stroke="white" stroke-miterlimit="10"/>
<path d="M272.257 245.742C243.96 267.529 209.213 279.271 173.501 279.113C137.789 278.956 103.146 266.907 75.0435 244.871L117.415 225.009C119.433 224.06 121.37 222.947 123.206 221.682C123.763 221.299 124.321 220.898 124.852 220.481C129.463 216.952 133.259 212.47 135.98 207.341C138.038 203.399 139.404 199.135 140.021 194.732C140.636 195.328 141.281 195.891 141.954 196.421C147.293 200.369 153.088 203.661 159.213 206.226C162.186 207.466 165.227 208.539 168.321 209.439C177.642 212.157 187.373 213.186 197.057 212.478C198.398 212.374 199.747 212.243 201.088 212.147L201.219 216.571V216.823L211.755 221.107L272.257 245.742Z" fill="url(#paint0_linear_111_1654)"/>
<path d="M164.281 152.229C164.4 152.041 164.556 151.879 164.741 151.754C164.925 151.629 165.133 151.543 165.352 151.502C165.571 151.461 165.797 151.466 166.014 151.516C166.231 151.566 166.435 151.661 166.614 151.794C168.425 153.065 171.734 155.764 176.437 156.705C182.845 157.976 188.401 155.416 189.733 157.062C190.482 157.993 189.568 159.134 187.818 160.545C185.985 161.917 183.895 162.909 181.673 163.461C179.45 164.013 177.14 164.114 174.878 163.758C168.713 162.6 164.08 155.459 164.08 152.934C164.088 152.686 164.156 152.444 164.281 152.229Z" fill="white"/>
<defs>
<linearGradient id="paint0_linear_111_1654" x1="75.0435" y1="236.921" x2="272.257" y2="236.921" gradientUnits="userSpaceOnUse">
<stop stop-color="#FF7043"/>
<stop offset="1" stop-color="#FFB199"/>
</linearGradient>
</defs>
</svg>
